<mxfile host="app.diagrams.net" modified="2023-09-04T09:26:41.676Z" agent="Mozilla/5.0 (Windows NT 10.0; Win64; x64) AppleWebKit/537.36 (KHTML, like Gecko) Chrome/116.0.0.0 Safari/537.36" version="21.7.2" etag="uA91TdfIMvhBHCWXGBrR" type="github">
  <diagram name="第 1 页" id="0TbkRzKtg_czBRDa2M-h">
    <mxGraphModel>
      <root>
        <mxCell id="0" />
        <mxCell id="1" parent="0" />
      </root>
    </mxGraphModel>
  </diagram>
</mxfile>
